HIERARCHY
ROOT Hips
{
 OFFSET 0.000000 0.000000 0.000000
 CHANNELS 6 Xposition Yposition Zposition Yrotation Xrotation Zrotation
 JOINT Chest
 {
  OFFSET 0.000000 9.581000 -0.001100
  CHANNELS 3 Yrotation Xrotation Zrotation
  JOINT Chest2
  {
   OFFSET 0.000000 9.561100 0.002200
   CHANNELS 3 Yrotation Xrotation Zrotation
   JOINT Chest3
   {
    OFFSET 0.000000 9.521100 0.000000
    CHANNELS 3 Yrotation Xrotation Zrotation
    JOINT Chest4
    {
     OFFSET 0.000000 9.511400 0.000000
     CHANNELS 3 Yrotation Xrotation Zrotation
     JOINT Neck
     {
      OFFSET 0.000000 14.375100 0.000000
      CHANNELS 3 Yrotation Xrotation Zrotation
      JOINT Head
      {
       OFFSET 0.000000 8.901200 0.004600
       CHANNELS 3 Yrotation Xrotation Zrotation
       End Site
       {
        OFFSET 0.000000 16.962200 0.002400
       }
      }
     }
     JOINT RightCollar
     {
      OFFSET -2.920100 9.518800 0.000000
      CHANNELS 3 Yrotation Xrotation Zrotation
      JOINT RightShoulder
      {
       OFFSET -13.664500 0.000000 0.000000
       CHANNELS 3 Yrotation Xrotation Zrotation
       JOINT RightElbow
       {
        OFFSET 0.000000 -29.999200 0.000000
        CHANNELS 3 Yrotation Xrotation Zrotation
        JOINT RightWrist
        {
         OFFSET 0.000000 -24.253600 0.000000
         CHANNELS 3 Yrotation Xrotation Zrotation
         End Site
         {
          OFFSET 0.000000 -17.918900 0.000000
         }
        }
       }
      }
     }
     JOINT LeftCollar
     {
      OFFSET 2.920100 9.518800 0.000000
      CHANNELS 3 Yrotation Xrotation Zrotation
      JOINT LeftShoulder
      {
       OFFSET 13.664500 0.000000 0.000000
       CHANNELS 3 Yrotation Xrotation Zrotation
       JOINT LeftElbow
       {
        OFFSET 0.000000 -29.999200 0.000000
        CHANNELS 3 Yrotation Xrotation Zrotation
        JOINT LeftWrist
        {
         OFFSET 0.000000 -24.253600 0.000000
         CHANNELS 3 Yrotation Xrotation Zrotation
         End Site
         {
          OFFSET 0.000000 -17.918900 0.000000
         }
        }
       }
      }
     }
    }
   }
  }
 }
 JOINT RightHip
 {
  OFFSET -7.797300 0.005300 0.000500
  CHANNELS 3 Yrotation Xrotation Zrotation
  JOINT RightKnee
  {
   OFFSET 0.000000 -40.663400 -0.000500
   CHANNELS 3 Yrotation Xrotation Zrotation
   JOINT RightAnkle
   {
    OFFSET 0.000000 -39.523700 -0.000900
    CHANNELS 3 Yrotation Xrotation Zrotation
    JOINT RightToe
    {
     OFFSET 0.000000 -6.418000 14.485300
     CHANNELS 3 Yrotation Xrotation Zrotation
     End Site
     {
      OFFSET 0.000000 -1.465200 6.326400
     }
    }
   }
  }
 }
 JOINT LeftHip
 {
  OFFSET 7.797300 0.005300 0.000500
  CHANNELS 3 Yrotation Xrotation Zrotation
  JOINT LeftKnee
  {
   OFFSET 0.000000 -40.663400 -0.000500
   CHANNELS 3 Yrotation Xrotation Zrotation
   JOINT LeftAnkle
   {
    OFFSET 0.000000 -39.523700 -0.000900
    CHANNELS 3 Yrotation Xrotation Zrotation
    JOINT LeftToe
    {
     OFFSET 0.000000 -6.418000 14.485300
     CHANNELS 3 Yrotation Xrotation Zrotation
     End Site
     {
      OFFSET 0.000000 -1.465200 6.326400
     }
    }
   }
  }
 }
}
MOTION
Frames: 16
Frame Time: 0.008333
-2.230681 126.273676 22.797788 -170.776584 -24.987354 -1.983962 -2.337327 18.687307 1.491995 -0.280403 2.163813 0.220520 -0.484212 3.597126 0.345788 -2.052721 16.223071 1.344174 0.057929 19.165307 -1.041002 0.298826 -5.483329 -1.097854 -8.905703 -2.845369 -7.487136 -37.433887 -2.984605 -16.010093 -108.931964 -16.470323 123.526797 -31.882215 -3.500454 -3.875117 1.423541 -2.467682 5.503494 29.977091 -6.357246 6.793898 94.975239 -35.143280 -112.753729 30.890412 -22.483654 18.159285 -3.699546 -63.265780 4.320823 -48.829775 69.203568 -52.585628 33.550359 33.299420 27.435927 -0.002683 -0.005551 -0.001189 -6.143524 -52.205977 -1.278406 89.875146 80.542323 83.796525 -19.487301 -10.164393 -7.955555 0.000837 0.002675 0.000371
-2.232678 126.274821 22.797853 -170.755868 -25.009659 -1.984786 -2.343579 18.694685 1.494565 -0.281046 2.165657 0.223140 -0.491672 3.603957 0.341633 -2.051525 16.216769 1.357819 0.050118 19.171448 -1.058059 0.323446 -5.506516 -1.143803 -8.895214 -2.857224 -7.467806 -37.451321 -2.987640 -16.040940 -108.339454 -15.777835 123.750686 -31.973868 -3.452793 -3.927778 1.418210 -2.461814 5.486073 29.874322 -6.336382 6.728706 94.956549 -35.167086 -112.781583 30.888702 -22.506031 18.182084 -3.697288 -63.242806 4.294748 -48.765015 69.245848 -52.553358 33.517351 33.265777 27.478780 -0.017280 -0.004052 -0.007656 -6.150611 -52.188972 -1.294173 89.893988 80.541374 83.810920 -19.491806 -10.164746 -7.964777 0.003671 0.000340 0.001627
-2.235457 126.275872 22.797910 -170.704636 -25.029678 -1.993747 -2.376187 18.701439 1.494227 -0.289799 2.170450 0.222990 -0.493596 3.606263 0.339169 -2.054124 16.208070 1.370980 0.064011 19.160962 -1.081207 0.311052 -5.488735 -1.151978 -8.875967 -2.867147 -7.446540 -37.501310 -2.996381 -16.044407 -107.667045 -15.094689 124.010724 -32.064581 -3.413712 -4.005957 1.411024 -2.449057 5.467163 29.785670 -6.321368 6.664987 94.929422 -35.178720 -112.804204 30.890270 -22.522171 18.192424 -3.696126 -63.217772 4.246262 -48.741630 69.281435 -52.543985 33.472288 33.225432 27.489617 -0.025472 -0.003428 -0.011285 -6.166685 -52.183423 -1.323225 89.969611 80.538498 83.880440 -19.507299 -10.157406 -7.969134 -0.002321 -0.006358 -0.001028
-2.237640 126.275792 22.800047 -170.685153 -25.034007 -1.990382 -2.387453 18.695113 1.495811 -0.297843 2.178100 0.215083 -0.487476 3.596646 0.349242 -2.062544 16.205101 1.375141 0.062757 19.163644 -1.102325 0.306677 -5.479081 -1.152886 -8.876569 -2.919526 -7.382218 -37.585880 -3.032278 -16.093847 -106.888599 -14.447938 124.288977 -32.157078 -3.385500 -4.113634 1.411554 -2.441095 5.457409 29.684329 -6.298458 6.583427 94.912119 -35.193185 -112.828953 30.889396 -22.532431 18.198278 -3.681443 -63.212339 4.212444 -48.738162 69.308256 -52.553473 33.464120 33.186648 27.493871 -0.027417 0.002874 -0.012148 -6.159848 -52.183796 -1.346008 89.939598 80.538650 83.832593 -19.500711 -10.142827 -7.954943 -0.004482 -0.007565 -0.001986
-2.237583 126.275904 22.801446 -170.665601 -25.038587 -2.000667 -2.385492 18.688523 1.515280 -0.299596 2.177214 0.215810 -0.490632 3.595232 0.350489 -2.079324 16.211198 1.370367 0.063534 19.162305 -1.114586 0.311923 -5.479073 -1.173510 -8.877430 -2.945038 -7.348868 -37.597394 -3.045861 -16.137600 -106.187775 -13.824091 124.586619 -32.249027 -3.367152 -4.249625 1.414394 -2.455817 5.471092 29.576005 -6.257307 6.480853 94.905377 -35.215043 -112.853686 30.882237 -22.535921 18.201449 -3.641486 -63.201646 4.167686 -48.759990 69.309242 -52.556309 33.518808 33.156676 27.492489 -0.018295 0.008081 -0.008107 -6.167970 -52.179745 -1.347283 89.926241 80.542300 83.812205 -19.486082 -10.141535 -7.951506 0.000261 -0.006513 0.000115
-2.236488 126.275918 22.803022 -170.633831 -25.038806 -2.022001 -2.401980 18.684078 1.532339 -0.296363 2.172761 0.221838 -0.497319 3.597788 0.347440 -2.088015 16.212992 1.369887 0.061682 19.165145 -1.124518 0.321168 -5.485393 -1.203961 -8.865943 -2.962041 -7.315673 -37.617596 -3.065967 -16.178539 -105.521768 -13.289290 124.916327 -32.322147 -3.353195 -4.412751 1.414895 -2.457828 5.468866 29.468768 -6.241389 6.370169 94.903940 -35.246345 -112.871592 30.869528 -22.532032 18.200517 -3.569880 -63.196387 4.110282 -48.847371 69.291337 -52.601214 33.524917 33.128571 27.446265 -0.005113 0.005213 -0.002266 -6.200899 -52.178384 -1.334963 89.930047 80.545447 83.805277 -19.471965 -10.143686 -7.950890 0.000376 -0.002400 0.000167
-2.234444 126.276388 22.803728 -170.609087 -25.043108 -2.046915 -2.411592 18.685198 1.555542 -0.302647 2.175895 0.217773 -0.493196 3.586472 0.359735 -2.108783 16.206729 1.380352 0.060674 19.173456 -1.162069 0.336636 -5.500393 -1.258803 -8.831826 -2.957246 -7.305698 -37.582487 -3.083154 -16.237445 -104.984706 -12.848816 125.268789 -32.357617 -3.330132 -4.595128 1.425157 -2.448128 5.446283 29.362820 -6.227284 6.248635 94.904867 -35.282579 -112.886508 30.856139 -22.523909 18.197356 -3.538048 -63.190468 4.097872 -48.912592 69.279437 -52.640471 33.607191 33.105153 27.412877 0.023739 0.011494 0.010520 -6.236211 -52.171580 -1.312515 89.933851 80.548823 83.803968 -19.463778 -10.149365 -7.951456 0.001385 0.000556 0.000613
-2.235544 126.276777 22.805162 -170.604101 -25.046523 -2.044298 -2.410487 18.680845 1.558744 -0.306662 2.178567 0.216359 -0.495367 3.587421 0.358317 -2.115029 16.197503 1.389675 0.063948 19.161763 -1.189402 0.338291 -5.488326 -1.273203 -8.813990 -2.948217 -7.301230 -37.495125 -3.066263 -16.271057 -104.594384 -12.542976 125.674283 -32.355345 -3.286857 -4.773662 1.430403 -2.452445 5.437748 29.250788 -6.204657 6.120855 94.917013 -35.320776 -112.910043 30.847202 -22.518747 18.195990 -3.477041 -63.188994 4.067933 -48.946690 69.268022 -52.685865 33.594258 33.096464 27.430182 0.020428 0.010140 0.009052 -6.224433 -52.165947 -1.316777 89.916347 80.559646 83.784722 -19.504612 -10.144875 -7.938665 -0.002236 0.004021 -0.000991
-2.237861 126.276641 22.808133 -170.597750 -25.042141 -2.033400 -2.417834 18.672710 1.547869 -0.305173 2.162862 0.227560 -0.499246 3.601497 0.348112 -2.125586 16.187341 1.399307 0.064162 19.163413 -1.210027 0.342567 -5.480984 -1.283282 -8.789381 -2.935049 -7.299164 -37.375611 -3.036268 -16.300669 -104.342510 -12.373742 126.118907 -32.318350 -3.227493 -4.915863 1.437979 -2.455689 5.413670 29.128018 -6.185981 5.997356 94.953922 -35.359387 -112.942831 30.842961 -22.522709 18.200379 -3.444336 -63.195282 4.037519 -48.956314 69.264428 -52.699367 33.489939 33.114450 27.427192 0.004712 0.003451 0.002088 -6.205748 -52.168784 -1.332171 89.850789 80.584331 83.699161 -19.500614 -10.128010 -7.915849 -0.007677 0.004945 -0.003402
-2.237873 126.277111 22.809922 -170.591057 -25.045011 -2.036784 -2.422940 18.665620 1.555832 -0.307469 2.164295 0.226461 -0.499623 3.597765 0.350564 -2.140060 16.184838 1.404350 0.064431 19.165525 -1.230168 0.349955 -5.473922 -1.297749 -8.743242 -2.924084 -7.289716 -37.252441 -3.001198 -16.335886 -104.202955 -12.319939 126.591133 -32.249506 -3.152151 -4.992896 1.450942 -2.454177 5.380830 28.991151 -6.172932 5.868365 95.017909 -35.397581 -112.979979 30.841198 -22.540193 18.213500 -3.427224 -63.194928 4.042225 -48.994070 69.247765 -52.741741 33.427836 33.128607 27.427738 0.006530 -0.000937 0.002893 -6.194883 -52.157086 -1.325744 89.769994 80.615462 83.613820 -19.484638 -10.124972 -7.910514 0.001912 0.007556 0.000847
-2.239963 126.277785 22.811617 -170.574599 -25.052356 -2.030890 -2.442959 18.661362 1.549437 -0.307758 2.172888 0.220700 -0.506898 3.582432 0.363647 -2.150650 16.188457 1.403809 0.063662 19.167016 -1.248154 0.354933 -5.470640 -1.323356 -8.687121 -2.908867 -7.287901 -37.126212 -2.960900 -16.356741 -104.150047 -12.349696 127.077581 -32.158054 -3.054240 -4.996445 1.463749 -2.454281 5.340235 28.844521 -6.159020 5.737615 95.102103 -35.439394 -113.023154 30.840466 -22.573613 18.235804 -3.401164 -63.190370 4.020590 -48.984076 69.226647 -52.779763 33.466509 33.138715 27.512208 -0.007386 -0.003710 -0.003272 -6.190687 -52.148838 -1.345939 89.732421 80.630363 83.565447 -19.452844 -10.119452 -7.919497 0.003490 0.005749 0.001546
-2.239558 126.278334 22.813367 -170.565797 -25.059202 -2.034637 -2.454700 18.649877 1.561421 -0.309005 2.180282 0.216259 -0.506455 3.587655 0.359707 -2.160336 16.179276 1.413146 0.062575 19.171771 -1.263157 0.357827 -5.469722 -1.344152 -8.589905 -2.882289 -7.269591 -37.032352 -2.930645 -16.378864 -104.159564 -12.428792 127.572880 -32.060031 -2.936782 -4.942338 1.467967 -2.452008 5.295785 28.695332 -6.146593 5.608540 95.204653 -35.484503 -113.071756 30.835835 -22.617481 18.263676 -3.398419 -63.188214 4.019994 -48.996332 69.222993 -52.802183 33.448791 33.148785 27.533669 -0.006600 -0.005705 -0.002924 -6.199861 -52.140327 -1.334701 89.710000 80.650177 83.531611 -19.443530 -10.115740 -7.919080 0.006070 0.005871 0.002690
-2.241728 126.280044 22.812784 -170.542180 -25.084966 -2.029613 -2.481330 18.667905 1.549358 -0.310904 2.172880 0.222067 -0.509193 3.588124 0.360574 -2.166302 16.181192 1.409568 0.062533 19.180528 -1.273665 0.352903 -5.480814 -1.350600 -8.561961 -2.870659 -7.274469 -36.861433 -2.874262 -16.366897 -104.204797 -12.522768 128.068420 -31.971124 -2.804989 -4.849982 1.468718 -2.446375 5.269322 28.538874 -6.130756 5.468839 95.329606 -35.529795 -113.125898 30.823606 -22.660483 18.295850 -3.371378 -63.168780 3.983216 -48.984094 69.237935 -52.820333 33.420617 33.142788 27.576140 -0.012675 -0.011961 -0.005615 -6.200952 -52.117530 -1.353691 89.719678 80.660721 83.533555 -19.446338 -10.110307 -7.917416 0.010350 0.002270 0.004586
-2.243727 126.281078 22.813403 -170.524445 -25.103764 -2.019652 -2.501452 18.672784 1.538674 -0.312027 2.172262 0.222415 -0.511139 3.587123 0.361176 -2.170472 16.191578 1.402224 0.059846 19.169060 -1.270799 0.352546 -5.478604 -1.358676 -8.497802 -2.881382 -7.254723 -36.716454 -2.813217 -16.370230 -104.258584 -12.607512 128.552799 -31.896351 -2.668451 -4.735752 1.460950 -2.450506 5.249986 28.377930 -6.108755 5.336932 95.477345 -35.578184 -113.186954 30.808489 -22.692240 18.331288 -3.346409 -63.151013 3.942056 -48.928041 69.272923 -52.794983 33.369829 33.125310 27.612866 -0.023885 -0.012179 -0.010580 -6.194093 -52.105858 -1.376365 89.746333 80.669525 83.555843 -19.494418 -10.099477 -7.916455 0.002729 0.000757 0.001209
-2.244728 126.281568 22.814834 -170.496869 -25.115906 -2.016881 -2.511973 18.658938 1.547060 -0.321093 2.183021 0.214899 -0.514299 3.588755 0.361317 -2.183944 16.193724 1.401278 0.056121 19.167615 -1.276812 0.347683 -5.493195 -1.362242 -8.429297 -2.894736 -7.240766 -36.572253 -2.750879 -16.368914 -104.296726 -12.667939 129.023142 -31.831813 -2.541228 -4.619970 1.435380 -2.455621 5.202737 28.225381 -6.086222 5.236237 95.641066 -35.630042 -113.248909 30.792257 -22.703979 18.362831 -3.329156 -63.136746 3.891817 -48.864550 69.309973 -52.746587 33.415774 33.089909 27.640978 -0.017807 -0.006071 -0.007889 -6.198516 -52.097394 -1.400771 89.713960 80.662489 83.500278 -19.482147 -10.091180 -7.926077 -0.003106 -0.004983 -0.001376
-2.244329 126.281988 22.816037 -170.474544 -25.127396 -2.018718 -2.532194 18.667402 1.541742 -0.314818 2.173199 0.222833 -0.502117 3.579753 0.368793 -2.205284 16.201612 1.395432 0.053908 19.154438 -1.279576 0.341560 -5.470978 -1.367732 -8.383932 -2.901218 -7.232974 -36.424067 -2.695570 -16.348169 -104.302201 -12.693596 129.477991 -31.768579 -2.428064 -4.518786 1.400237 -2.462097 5.148126 28.069662 -6.065404 5.152293 95.811305 -35.686214 -113.305966 30.728932 -22.706962 18.401787 -3.274300 -63.117861 3.830502 -48.848628 69.333249 -52.723125 33.372791 33.058020 27.649577 -0.017400 -0.002268 -0.007709 -6.207352 -52.089723 -1.415526 89.723543 80.657800 83.499414 -19.477879 -10.088317 -7.925390 -0.002427 -0.006170 -0.001075
